<mxfile host="app.diagrams.net" modified="2024-03-01T13:33:05.707Z" agent="Mozilla/5.0 (Windows NT 10.0; Win64; x64; rv:123.0) Gecko/20100101 Firefox/123.0" etag="LXBTJcLPEYmjETbss8mp" version="23.1.8" type="device">
  <diagram name="Pagina-1" id="jiIVbeQ6Xwq3VzWnNWZg">
    <mxGraphModel dx="1036" dy="578" grid="1" gridSize="10" guides="1" tooltips="1" connect="1" arrows="1" fold="1" page="1" pageScale="1" pageWidth="827" pageHeight="1169" math="0" shadow="0">
      <root>
        <mxCell id="0" />
        <mxCell id="1" parent="0" />
        <mxCell id="RCUrtrNtnLoFjurdOkla-1" value="" style="shape=umlLifeline;perimeter=lifelinePerimeter;whiteSpace=wrap;html=1;container=1;dropTarget=0;collapsible=0;recursiveResize=0;outlineConnect=0;portConstraint=eastwest;newEdgeStyle={&quot;curved&quot;:0,&quot;rounded&quot;:0};participant=umlActor;fillColor=#D4E1F5;" parent="1" vertex="1">
          <mxGeometry x="195" y="70" width="20" height="950" as="geometry" />
        </mxCell>
        <mxCell id="RCUrtrNtnLoFjurdOkla-4" value="" style="html=1;points=[[0,0,0,0,5],[0,1,0,0,-5],[1,0,0,0,5],[1,1,0,0,-5]];perimeter=orthogonalPerimeter;outlineConnect=0;targetShapes=umlLifeline;portConstraint=eastwest;newEdgeStyle={&quot;curved&quot;:0,&quot;rounded&quot;:0};fillColor=#D4E1F5;" parent="RCUrtrNtnLoFjurdOkla-1" vertex="1">
          <mxGeometry x="5" y="40" width="10" height="910" as="geometry" />
        </mxCell>
        <mxCell id="RCUrtrNtnLoFjurdOkla-2" value=":Application" style="shape=umlLifeline;perimeter=lifelinePerimeter;whiteSpace=wrap;html=1;container=1;dropTarget=0;collapsible=0;recursiveResize=0;outlineConnect=0;portConstraint=eastwest;newEdgeStyle={&quot;curved&quot;:0,&quot;rounded&quot;:0};fillColor=#d5e8d4;strokeColor=default;" parent="1" vertex="1">
          <mxGeometry x="375" y="70" width="100" height="950" as="geometry" />
        </mxCell>
        <mxCell id="RCUrtrNtnLoFjurdOkla-5" value="" style="html=1;points=[[0,0,0,0,5],[0,1,0,0,-5],[1,0,0,0,5],[1,1,0,0,-5]];perimeter=orthogonalPerimeter;outlineConnect=0;targetShapes=umlLifeline;portConstraint=eastwest;newEdgeStyle={&quot;curved&quot;:0,&quot;rounded&quot;:0};fillColor=#d5e8d4;strokeColor=default;" parent="RCUrtrNtnLoFjurdOkla-2" vertex="1">
          <mxGeometry x="45" y="80" width="10" height="860" as="geometry" />
        </mxCell>
        <mxCell id="RCUrtrNtnLoFjurdOkla-45" value="Decrypt success" style="html=1;align=left;spacingLeft=2;endArrow=block;rounded=0;edgeStyle=orthogonalEdgeStyle;curved=0;rounded=0;" parent="RCUrtrNtnLoFjurdOkla-2" source="RCUrtrNtnLoFjurdOkla-5" target="RCUrtrNtnLoFjurdOkla-5" edge="1">
          <mxGeometry relative="1" as="geometry">
            <mxPoint x="60" y="475" as="sourcePoint" />
            <Array as="points">
              <mxPoint x="90" y="475" />
              <mxPoint x="90" y="505" />
            </Array>
            <mxPoint x="60" y="505" as="targetPoint" />
          </mxGeometry>
        </mxCell>
        <mxCell id="RCUrtrNtnLoFjurdOkla-46" value="Decrypt fail" style="html=1;align=left;spacingLeft=2;endArrow=block;rounded=0;edgeStyle=orthogonalEdgeStyle;curved=0;rounded=0;" parent="RCUrtrNtnLoFjurdOkla-2" source="RCUrtrNtnLoFjurdOkla-5" target="RCUrtrNtnLoFjurdOkla-5" edge="1">
          <mxGeometry relative="1" as="geometry">
            <mxPoint x="60" y="600" as="sourcePoint" />
            <Array as="points">
              <mxPoint x="90" y="600" />
              <mxPoint x="90" y="630" />
            </Array>
            <mxPoint x="60" y="630" as="targetPoint" />
          </mxGeometry>
        </mxCell>
        <mxCell id="RCUrtrNtnLoFjurdOkla-3" value=":USB" style="shape=umlLifeline;perimeter=lifelinePerimeter;whiteSpace=wrap;html=1;container=1;dropTarget=0;collapsible=0;recursiveResize=0;outlineConnect=0;portConstraint=eastwest;newEdgeStyle={&quot;curved&quot;:0,&quot;rounded&quot;:0};fillColor=#ffe6cc;strokeColor=default;" parent="1" vertex="1">
          <mxGeometry x="635" y="70" width="100" height="950" as="geometry" />
        </mxCell>
        <mxCell id="RCUrtrNtnLoFjurdOkla-24" value="" style="html=1;points=[[0,0,0,0,5],[0,1,0,0,-5],[1,0,0,0,5],[1,1,0,0,-5]];perimeter=orthogonalPerimeter;outlineConnect=0;targetShapes=umlLifeline;portConstraint=eastwest;newEdgeStyle={&quot;curved&quot;:0,&quot;rounded&quot;:0};fillColor=#ffe6cc;strokeColor=default;" parent="RCUrtrNtnLoFjurdOkla-3" vertex="1">
          <mxGeometry x="45" y="290" width="10" height="570" as="geometry" />
        </mxCell>
        <mxCell id="RCUrtrNtnLoFjurdOkla-25" value="File read" style="html=1;verticalAlign=bottom;startArrow=oval;endArrow=block;startSize=8;curved=0;rounded=0;entryX=0;entryY=0;entryDx=0;entryDy=5;" parent="RCUrtrNtnLoFjurdOkla-3" source="RCUrtrNtnLoFjurdOkla-5" target="RCUrtrNtnLoFjurdOkla-24" edge="1">
          <mxGeometry relative="1" as="geometry">
            <mxPoint x="-30" y="285" as="sourcePoint" />
          </mxGeometry>
        </mxCell>
        <mxCell id="RCUrtrNtnLoFjurdOkla-6" value="Opening" style="html=1;verticalAlign=bottom;startArrow=oval;startFill=1;endArrow=block;startSize=8;curved=0;rounded=0;" parent="1" source="RCUrtrNtnLoFjurdOkla-4" edge="1">
          <mxGeometry width="60" relative="1" as="geometry">
            <mxPoint x="285" y="150" as="sourcePoint" />
            <mxPoint x="424.5" y="150" as="targetPoint" />
          </mxGeometry>
        </mxCell>
        <mxCell id="RCUrtrNtnLoFjurdOkla-7" value="AuthN request" style="html=1;verticalAlign=bottom;startArrow=oval;startFill=1;endArrow=block;startSize=8;curved=0;rounded=0;" parent="1" source="RCUrtrNtnLoFjurdOkla-5" edge="1">
          <mxGeometry width="60" relative="1" as="geometry">
            <mxPoint x="415" y="190" as="sourcePoint" />
            <mxPoint x="210" y="190" as="targetPoint" />
          </mxGeometry>
        </mxCell>
        <mxCell id="RCUrtrNtnLoFjurdOkla-10" value="AuthN response" style="html=1;verticalAlign=bottom;startArrow=oval;startFill=1;endArrow=block;startSize=8;curved=0;rounded=0;" parent="1" edge="1">
          <mxGeometry width="60" relative="1" as="geometry">
            <mxPoint x="210" y="230" as="sourcePoint" />
            <mxPoint x="420" y="230" as="targetPoint" />
          </mxGeometry>
        </mxCell>
        <mxCell id="RCUrtrNtnLoFjurdOkla-14" value="alt" style="shape=umlFrame;whiteSpace=wrap;html=1;pointerEvents=0;" parent="1" vertex="1">
          <mxGeometry x="60" y="270" width="730" height="760" as="geometry" />
        </mxCell>
        <mxCell id="RCUrtrNtnLoFjurdOkla-16" value="" style="endArrow=none;dashed=1;html=1;rounded=0;" parent="1" edge="1">
          <mxGeometry width="50" height="50" relative="1" as="geometry">
            <mxPoint x="65" y="950" as="sourcePoint" />
            <mxPoint x="785" y="950" as="targetPoint" />
          </mxGeometry>
        </mxCell>
        <mxCell id="RCUrtrNtnLoFjurdOkla-17" value="AuthN fail" style="html=1;verticalAlign=bottom;startArrow=oval;startFill=1;endArrow=block;startSize=8;curved=0;rounded=0;" parent="1" source="RCUrtrNtnLoFjurdOkla-5" edge="1">
          <mxGeometry width="60" relative="1" as="geometry">
            <mxPoint x="415" y="990" as="sourcePoint" />
            <mxPoint x="210" y="990" as="targetPoint" />
          </mxGeometry>
        </mxCell>
        <mxCell id="RCUrtrNtnLoFjurdOkla-18" value="AuthN success" style="html=1;verticalAlign=bottom;startArrow=oval;startFill=1;endArrow=block;startSize=8;curved=0;rounded=0;" parent="1" edge="1">
          <mxGeometry width="60" relative="1" as="geometry">
            <mxPoint x="420" y="310" as="sourcePoint" />
            <mxPoint x="210" y="310" as="targetPoint" />
          </mxGeometry>
        </mxCell>
        <mxCell id="RCUrtrNtnLoFjurdOkla-29" value="alt" style="shape=umlFrame;whiteSpace=wrap;html=1;pointerEvents=0;" parent="1" vertex="1">
          <mxGeometry x="84.32" y="390" width="680" height="530" as="geometry" />
        </mxCell>
        <mxCell id="RCUrtrNtnLoFjurdOkla-30" value="" style="endArrow=none;dashed=1;html=1;rounded=0;entryX=1.003;entryY=0.774;entryDx=0;entryDy=0;entryPerimeter=0;exitX=0.007;exitY=0.757;exitDx=0;exitDy=0;exitPerimeter=0;" parent="1" target="RCUrtrNtnLoFjurdOkla-29" edge="1">
          <mxGeometry width="50" height="50" relative="1" as="geometry">
            <mxPoint x="84.32000000000039" y="800" as="sourcePoint" />
            <mxPoint x="760.9200000000003" y="800" as="targetPoint" />
          </mxGeometry>
        </mxCell>
        <mxCell id="RCUrtrNtnLoFjurdOkla-31" value="Read fail" style="html=1;verticalAlign=bottom;startArrow=oval;startFill=1;endArrow=block;startSize=8;curved=0;rounded=0;" parent="1" edge="1">
          <mxGeometry width="60" relative="1" as="geometry">
            <mxPoint x="680" y="840.0000000000002" as="sourcePoint" />
            <mxPoint x="430" y="840.0000000000002" as="targetPoint" />
          </mxGeometry>
        </mxCell>
        <mxCell id="RCUrtrNtnLoFjurdOkla-32" value="Read error" style="html=1;verticalAlign=bottom;startArrow=oval;startFill=1;endArrow=block;startSize=8;curved=0;rounded=0;" parent="1" edge="1">
          <mxGeometry width="60" relative="1" as="geometry">
            <mxPoint x="419.99999999999955" y="870" as="sourcePoint" />
            <mxPoint x="210" y="870" as="targetPoint" />
          </mxGeometry>
        </mxCell>
        <mxCell id="RCUrtrNtnLoFjurdOkla-33" value="Read success" style="html=1;verticalAlign=bottom;startArrow=oval;startFill=1;endArrow=block;startSize=8;curved=0;rounded=0;" parent="1" edge="1">
          <mxGeometry width="60" relative="1" as="geometry">
            <mxPoint x="680" y="430" as="sourcePoint" />
            <mxPoint x="430" y="430" as="targetPoint" />
          </mxGeometry>
        </mxCell>
        <mxCell id="RCUrtrNtnLoFjurdOkla-35" value="Decrypt file" style="html=1;align=left;spacingLeft=2;endArrow=block;rounded=0;edgeStyle=orthogonalEdgeStyle;curved=0;rounded=0;" parent="1" target="RCUrtrNtnLoFjurdOkla-5" edge="1">
          <mxGeometry relative="1" as="geometry">
            <mxPoint x="430" y="450" as="sourcePoint" />
            <Array as="points">
              <mxPoint x="460" y="450" />
              <mxPoint x="460" y="480" />
            </Array>
            <mxPoint x="435" y="480" as="targetPoint" />
          </mxGeometry>
        </mxCell>
        <mxCell id="RCUrtrNtnLoFjurdOkla-38" value="alt" style="shape=umlFrame;whiteSpace=wrap;html=1;pointerEvents=0;" parent="1" vertex="1">
          <mxGeometry x="95" y="520" width="638.82" height="250" as="geometry" />
        </mxCell>
        <mxCell id="RCUrtrNtnLoFjurdOkla-39" value="" style="endArrow=none;dashed=1;html=1;rounded=0;entryX=1.002;entryY=0.757;entryDx=0;entryDy=0;entryPerimeter=0;exitX=0.007;exitY=0.757;exitDx=0;exitDy=0;exitPerimeter=0;" parent="1" edge="1">
          <mxGeometry width="50" height="50" relative="1" as="geometry">
            <mxPoint x="98.19173999999995" y="654.41" as="sourcePoint" />
            <mxPoint x="733.81764" y="654.41" as="targetPoint" />
          </mxGeometry>
        </mxCell>
        <mxCell id="RCUrtrNtnLoFjurdOkla-50" value="Display password" style="html=1;verticalAlign=bottom;startArrow=oval;startFill=1;endArrow=block;startSize=8;curved=0;rounded=0;" parent="1" edge="1">
          <mxGeometry width="60" relative="1" as="geometry">
            <mxPoint x="420.0000000000002" y="610" as="sourcePoint" />
            <mxPoint x="210" y="610" as="targetPoint" />
          </mxGeometry>
        </mxCell>
        <mxCell id="RCUrtrNtnLoFjurdOkla-51" value="Decryption error" style="html=1;verticalAlign=bottom;startArrow=oval;startFill=1;endArrow=block;startSize=8;curved=0;rounded=0;" parent="1" edge="1">
          <mxGeometry width="60" relative="1" as="geometry">
            <mxPoint x="419.99999999999955" y="740" as="sourcePoint" />
            <mxPoint x="210" y="740" as="targetPoint" />
          </mxGeometry>
        </mxCell>
      </root>
    </mxGraphModel>
  </diagram>
</mxfile>
